<svg width="509" height="378" viewBox="0 0 509 378" fill="none" xmlns="http://www.w3.org/2000/svg">
<g id="shopping 1" clip-path="url(#clip0_0_3)">
<path id="Vector" opacity="0.19" d="M495.24 220.32C479.78 248.95 449.09 269.95 416.55 269.75C404.86 269.67 393.1 267.02 381.55 268.98C373.55 270.35 366.03 273.9 358.55 277.23C320.34 294.32 274.21 306.07 238.03 285.02C216.81 272.67 200.38 249.74 176.03 247.13C160.9 245.51 146.33 252.33 132.21 258.01C111.89 266.18 89.42 272.34 68.27 266.66C46.02 260.66 29.5 242.73 18.48 222.03C26.91 218.17 36.99 220.21 46.32 221.53C74.5802 225.501 103.388 221.698 129.65 210.53C157.54 198.59 186.65 178.78 218.41 186C249.41 193 278.83 216.9 311.99 212C324.34 210.18 335.53 203.72 345.48 196.2C367.75 179.36 385.33 156.79 408.32 140.95C431.31 125.11 463.51 117.2 486.68 132.78C496.54 139.41 503.38 149.33 508.52 160.19C509.23 181.05 505.14 201.98 495.24 220.32Z" fill="#2A3D45"/>
<path id="Vector_2" d="M215.3 343.88C217.78 343.56 220.3 344.62 222.77 344.35C223.802 344.108 224.861 344.004 225.92 344.04C226.086 344.051 226.242 344.122 226.36 344.24C226.452 344.382 226.491 344.552 226.47 344.72V348.02C226.47 349.61 226.47 351.35 225.47 352.6C224.47 353.85 222.61 354.3 220.94 354.44C220.401 354.523 219.849 354.478 219.33 354.31C218.823 354.062 218.379 353.703 218.03 353.26C216.92 352.05 216.08 351.35 215.93 349.72C215.91 349.2 215.38 343.88 215.3 343.88ZM262.91 345.33C263.08 345.29 263.258 345.294 263.427 345.34C263.595 345.386 263.75 345.474 263.876 345.595C264.002 345.716 264.096 345.867 264.149 346.034C264.202 346.201 264.213 346.378 264.18 346.55C264.302 348.917 264.147 351.289 263.72 353.62C263.668 354.246 263.498 354.857 263.22 355.42C262.5 356.68 260.89 357.06 259.45 357.14C257.26 357.28 254.78 356.87 253.45 355.14C252.798 354.067 252.398 352.86 252.28 351.61C252.05 350.31 251.59 349.06 251.38 347.77C251.19 346.66 251.48 346.12 252.61 345.96C254.2 345.72 255.86 345.69 257.47 345.59C259.3 345.45 261.11 345.37 262.91 345.33Z" fill="#68E1FD"/>
<path id="Vector_3" d="M209.93 74.84C208.99 84.36 210.69 94.61 216.93 101.84C218.4 103.56 220.19 105.26 220.45 107.51C220.484 108.621 220.414 109.732 220.24 110.83C220.16 111.38 220.194 111.94 220.343 112.476C220.491 113.011 220.749 113.51 221.1 113.94C221.289 114.137 221.52 114.29 221.775 114.387C222.031 114.485 222.304 114.524 222.577 114.503C222.85 114.482 223.114 114.401 223.351 114.266C223.589 114.13 223.793 113.944 223.95 113.72L226.49 119.09C226.67 119.609 227.023 120.051 227.49 120.34C227.929 120.48 228.401 120.48 228.84 120.34C231.679 119.817 234.373 118.692 236.74 117.04C237.03 116.794 237.372 116.616 237.74 116.52C239.39 116.26 239.74 119.07 241.33 119.68C242.53 120.15 243.75 119.11 244.62 118.16L248.08 114.41C248.67 115.663 249.693 116.661 250.96 117.22C251.343 116.156 251.864 115.148 252.51 114.22C252.372 116.077 252.568 117.943 253.09 119.73L254.84 117.56C255 117.35 255.21 117.12 255.48 117.14C255.661 117.174 255.826 117.265 255.95 117.4L258.81 119.93C257.33 115.56 257.99 110.78 259.03 106.3C260.07 101.82 261.48 97.3 261.47 92.74C261.47 86.83 259.11 81.21 256.81 75.74C255.873 73.2048 254.595 70.8093 253.01 68.62C250.67 65.62 247.33 63.72 244.01 61.97C241.176 60.3092 238.072 59.1584 234.84 58.57C232.31 58.3283 229.759 58.4123 227.25 58.82C224.583 59.14 221.9 59.4733 219.2 59.82C216.88 60.15 215.84 60.28 214.36 62.1C211.45 65.76 210.37 70.38 209.93 74.84Z" fill="#25233A"/>
<path id="Vector_4" d="M252.86 87.92C253.013 88.7453 252.883 89.5982 252.49 90.34C252.097 91.0759 251.649 91.7812 251.15 92.45C250.759 93.0869 250.314 93.6891 249.82 94.25C249.319 94.8173 248.623 95.1745 247.87 95.25C245.05 95.34 246.15 90.62 247.09 89.14C248.12 87.41 252.01 84.45 252.86 87.92Z" fill="url(#paint0_linear_0_3)"/>
<path id="Vector_5" d="M248.96 89.88C249.183 89.5489 249.374 89.1973 249.53 88.83C249.687 88.4571 249.956 88.1424 250.3 87.93C250.471 87.828 250.672 87.7863 250.869 87.8117C251.067 87.837 251.25 87.928 251.39 88.07C251.71 88.47 251.5 89.07 251.25 89.49C250.67 90.49 250.69 92.11 249.78 92.85C249.319 93.1621 248.822 93.4173 248.3 93.61C247.643 93.7718 246.957 93.7718 246.3 93.61C246.03 93.41 246.64 92.06 246.61 91.72C246.58 91.38 246.61 90.88 246.72 90.72C246.83 90.56 247.31 90.72 247.51 90.72C247.796 90.687 248.073 90.5954 248.322 90.4509C248.572 90.3064 248.789 90.112 248.96 89.88Z" fill="url(#paint1_linear_0_3)"/>
<path id="Vector_6" d="M277.41 121.45C277.3 122.083 277.008 122.67 276.57 123.14C274.95 125.38 273.165 127.495 271.23 129.47C268.23 132.38 264.54 134.72 262.55 138.39C259.71 143.64 261.9 192.07 262.11 200.7C262.16 202.84 233.42 204.27 214.8 203.43L246.02 201.04C246.02 201.04 259.26 154.58 255.94 142.2C252.94 131.01 265.94 118.01 274.02 113.71L276.95 119.82C277.242 120.314 277.4 120.876 277.41 121.45Z" fill="url(#paint2_linear_0_3)"/>
<path id="Vector_7" d="M229.78 105.92C229.67 104.48 229.46 102.92 230.18 101.68C230.989 100.603 232.121 99.8109 233.41 99.42C235.79 98.42 238.72 97.47 240.78 99.02C241.894 100.016 242.623 101.371 242.84 102.85C243.456 105.943 243.635 109.107 243.37 112.25C243.21 115.01 242.84 117.94 241.06 120.05C239.852 121.304 238.421 122.321 236.84 123.05C234.7 124.19 231.9 125.28 230.04 123.72C224.48 119.13 230.2 111.75 229.78 105.92Z" fill="url(#paint3_linear_0_3)"/>
<path id="Vector_8" d="M207.04 202.87L194.5 278.48C194.5 278.48 207.34 280.84 237.03 277.37C253.63 275.44 265.64 276.01 273.03 276.89C273.988 277.005 274.96 276.884 275.861 276.539C276.763 276.193 277.566 275.633 278.202 274.907C278.838 274.182 279.288 273.312 279.513 272.373C279.737 271.434 279.729 270.455 279.49 269.52L262.14 200.7C262.14 200.7 211.29 195.74 207.04 202.87Z" fill="#68E1FD"/>
<g id="Group 1">
<path id="Vector_9" d="M74.18 119.5L47.99 151.13L86.94 185.74L98.01 175.74L101.72 122.61C101.86 121.13 74.18 119.5 74.18 119.5Z" fill="#EBEBEB"/>
<path id="Vector_10" d="M74.18 119.5L47.99 151.13L86.94 185.74L98.01 175.74L101.72 122.61C101.86 121.13 74.18 119.5 74.18 119.5Z" fill="url(#paint4_linear_0_3)"/>
<path id="Vector_11" d="M74.63 105.13C74.63 105.13 111.63 99.89 130.13 117.4L134.86 122.52L119.19 163.52C119.19 163.52 110.53 169.62 102.19 167.9C93.85 166.18 78.31 162.13 78.31 162.13C78.31 162.13 73.31 160.53 73.31 152.9C73.31 145.27 74.63 105.13 74.63 105.13Z" fill="url(#paint5_linear_0_3)"/>
<path id="Vector_12" d="M273 276.89C269.95 276.52 266.11 276.22 261.48 276.12C253.311 275.973 245.141 276.391 237.03 277.37C207.34 280.84 194.5 278.48 194.5 278.48L207.04 202.87C209.73 198.35 231.13 198.69 246.44 199.54H246.63C254.52 199.98 260.75 200.54 261.91 200.67H262.11V200.73L262.38 201.81L279.44 269.49C279.684 270.425 279.696 271.406 279.476 272.347C279.255 273.288 278.808 274.161 278.173 274.89C277.539 275.619 276.736 276.182 275.834 276.531C274.933 276.879 273.96 277.003 273 276.89Z" fill="url(#paint6_linear_0_3)"/>
<path id="Vector_13" d="M377.13 111.35L401.85 150.35L383.1 161.82L358.54 167.17L377.13 111.35Z" fill="#EBEBEB"/>
<path id="Vector_14" d="M74.63 105.13C74.63 105.13 111.63 99.89 130.13 117.4L134.86 122.52L119.19 163.52C119.19 163.52 110.53 169.62 102.19 167.9C93.85 166.18 78.31 162.13 78.31 162.13C78.31 162.13 73.31 160.53 73.31 152.9C73.31 145.27 74.63 105.13 74.63 105.13Z" fill="#EBEBEB"/>
<path id="Vector_15" d="M329.78 120.99C329.78 120.99 352.78 101.42 372.18 106.26H378.46C378.46 106.26 374.65 143.37 375.92 152.59C377.19 161.81 348.46 171.48 346.3 170.97C344.14 170.46 336.01 171.48 334.99 159.53C333.97 147.58 329.78 120.99 329.78 120.99Z" fill="#EBEBEB"/>
<path id="Vector_16" d="M102.15 116.51L115.13 116.8L141.8 113.75L155.5 166.4L118.16 185.71L97.57 182.13L102.15 116.51Z" fill="#EBEBEB"/>
<path id="Vector_17" d="M341.66 127.53L348.09 128.68L359.3 131.22L382.28 120.28L362.68 117.67L341.66 127.53Z" fill="#EBEBEB"/>
<path id="Vector_18" d="M359.3 131.22V182.13L349.39 175.32L348.09 128.68L359.3 131.22Z" fill="url(#paint7_linear_0_3)"/>
<path id="Vector_19" d="M341.66 127.53L348.09 128.68L359.3 131.22L382.28 120.28L362.68 117.67L341.66 127.53Z" fill="url(#paint8_linear_0_3)"/>
<path id="Vector_20" d="M343.89 176.82L349.39 175.32L348.09 128.68L341.66 127.53L343.89 176.82Z" fill="url(#paint9_linear_0_3)"/>
<path id="Vector_21" d="M377.13 111.35L401.85 150.35L383.1 161.82L358.54 167.17L377.13 111.35Z" fill="url(#paint10_linear_0_3)"/>
<g id="Group 2">
<path id="Vector_22" opacity="0.19" d="M495.24 220.32C479.78 248.95 449.09 269.95 416.55 269.75C404.86 269.67 393.1 267.02 381.55 268.98C373.55 270.35 366.03 273.9 358.55 277.23C320.34 294.32 274.21 306.07 238.03 285.02C216.81 272.67 200.38 249.74 176.03 247.13C160.9 245.51 146.33 252.33 132.21 258.01C111.89 266.18 89.42 272.34 68.27 266.66C46.02 260.66 29.5 242.73 18.48 222.03C15.7172 216.853 13.2792 211.51 11.18 206.03C-5.89 161.64 -4.7 108.1 23.54 69.83C44.86 40.87 78.66 23.79 112.66 12.19C190.71 -14.43 266.88 11.54 347.23 7C369 5.77 391.6 3.75999 411.94 11.6C428.13 17.83 441.43 29.8 453.24 42.5C475.4 66.33 494 94.18 503 125.45C506.259 136.746 508.117 148.4 508.53 160.15C509.23 181.05 505.14 201.98 495.24 220.32Z" fill="#2A3D45"/>
<path id="Vector_23" d="M206.22 275.94C206.49 275.99 217.37 348.78 217.37 348.78C217.37 348.78 225.28 350.68 225 348.78C224.72 346.88 226.09 323.6 227.71 319C229.33 314.4 224.71 275.94 224.71 275.94H206.22Z" fill="url(#paint11_linear_0_3)"/>
<path id="Vector_24" d="M241.52 275.45C241.52 275.45 243.15 312.23 246.39 321.45C249.63 330.67 253.7 349.64 253.7 349.64H263.7L261.86 274.68C261.86 274.68 250.46 267.13 241.52 275.45Z" fill="url(#paint12_linear_0_3)"/>
<path id="Vector_25" d="M197.61 371.87C197.504 372.488 197.566 373.124 197.79 373.71C198.056 374.218 198.424 374.665 198.872 375.023C199.319 375.381 199.836 375.642 200.39 375.79C204.03 377.04 215.17 369.45 218.69 367.9C221.786 366.597 224.75 365 227.54 363.13C227.82 362.93 227.09 353.13 226.89 351.64C226.893 351.527 226.873 351.415 226.832 351.311C226.791 351.206 226.729 351.11 226.65 351.03C226.504 350.943 226.339 350.895 226.17 350.89C224.49 350.75 222.8 350.89 221.11 350.89C220.245 350.903 219.38 350.867 218.52 350.78C217.749 350.56 216.959 350.416 216.16 350.35C214.88 350.49 212.42 354.51 211.31 355.13C198.62 362.24 197.95 369.49 197.61 371.87ZM251.27 360.4C251.027 361.35 250.945 362.333 251.03 363.31C251.32 364.82 252.63 365.9 253.86 366.83C256.11 368.52 268.37 380.77 275.5 376.83C275.948 376.524 276.296 376.093 276.5 375.59C276.761 375.016 276.913 374.399 276.95 373.77C277.203 371.03 276.605 368.279 275.24 365.89C274.02 363.79 266.7 357.38 265.96 355.07C265.51 353.67 265.37 351.96 264.12 351.17C263.951 351.048 263.748 350.981 263.54 350.98C263.224 351.021 262.927 351.157 262.69 351.37C260.51 352.83 257.69 352.45 255.19 352.09C254.46 351.98 252.91 351.09 252.31 351.49C251.42 352.11 251.53 354.59 251.49 355.49C251.513 357.13 251.44 358.769 251.27 360.4Z" fill="#25233A"/>
<path id="Vector_26" d="M267.35 104.84C267.35 104.84 301.29 83.7 301.83 83.24C302.37 82.78 336.67 54.9 340.58 50.99C344.49 47.08 347.47 40.43 352.94 42.59C358.41 44.75 358.53 53.28 351.56 61.05C350.73 61.98 345.3 61.86 345.1 62.11C344.63 62.67 343.62 63.76 340.59 67.11C337.56 70.46 319.01 90.58 308.23 95.74C297.45 100.9 276.57 123.13 276.57 123.13L267.35 104.84Z" fill="url(#paint13_linear_0_3)"/>
<path id="Vector_27" d="M195.03 107.6C193.66 109.2 163.32 92.12 163.32 92.12L127.51 55.71C127.51 55.71 121.35 50.34 116.98 57.71C112.61 65.08 123.59 72.27 123.59 72.27L130.76 73.43C130.76 73.43 148.14 102.33 152.43 103.78C156.72 105.23 188.18 130.78 188.48 127.44C188.78 124.1 195.03 107.6 195.03 107.6Z" fill="url(#paint14_linear_0_3)"/>
<path id="Vector_28" d="M220.58 99.57C223.43 104.9 229.58 108.98 235.45 107.39C239.82 106.2 242.88 102.23 244.75 98.11C246.357 94.3021 247.551 90.3327 248.31 86.27C249.16 82.38 249.91 78.36 249.17 74.45C248.324 70.6646 246.153 67.3061 243.049 64.9809C239.944 62.6557 236.111 61.5169 232.24 61.77C214.86 63.45 214.31 87.81 220.58 99.57Z" fill="url(#paint15_linear_0_3)"/>
<path id="Vector_29" d="M229.09 49.72C236.15 48.22 244.09 49.49 249.47 54.26C254.85 59.03 257.34 66.92 263.11 71.48C264.97 72.95 267.42 74.06 269.69 73.36C269.06 74.6913 268.071 75.8205 266.834 76.6207C265.598 77.421 264.163 77.8605 262.69 77.89C263.656 78.8789 264.884 79.5725 266.23 79.89C265.484 80.8518 264.538 81.6398 263.457 82.1993C262.376 82.7588 261.186 83.0764 259.97 83.13C260.576 83.5954 260.99 84.2685 261.13 85.02C258.7 86.27 255.79 86.15 253.13 85.58C250.882 85.0895 248.758 84.1457 246.887 82.8063C245.016 81.4668 243.439 79.76 242.25 77.79C236.55 67.72 226.57 60.35 218.61 72.97C216.13 71.32 213.49 69.42 213.08 66.48C211.92 57.76 221.77 51.27 229.09 49.72Z" fill="#25233A"/>
<path id="Vector_30" d="M277.41 121.45C277.3 122.083 277.008 122.67 276.57 123.14C274.95 125.38 273.165 127.495 271.23 129.47C268.23 132.38 264.54 134.72 262.55 138.39C259.71 143.64 261.9 192.07 262.11 200.7C262.17 203.17 223.84 204.7 207.04 202.87C207.26 194 212.33 178.56 210.51 169.87C209.04 162.87 207.93 166.81 204.13 155.4C202.57 150.74 203.73 145.12 204.56 140.27C205.11 137 190.4 131.09 188.48 127.47C188.596 125.114 188.91 122.773 189.42 120.47C190.288 116.525 191.712 112.724 193.65 109.18C193.933 108.519 194.411 107.961 195.02 107.58C195.755 107.308 196.558 107.28 197.31 107.5C203.099 108.546 208.756 110.222 214.18 112.5C219.26 114.62 224.54 113.71 229.89 112.99C243.183 111.2 256.115 107.347 268.22 101.57C271.127 107.637 274.033 113.7 276.94 119.76C277.245 120.271 277.408 120.855 277.41 121.45Z" fill="#EBEBEB"/>
</g>
<path id="Vector_31" d="M116.33 63.7L95.27 107.26H97.18L116.98 64.84C116.98 64.84 117.36 63.7 116.33 63.7ZM116.98 109.13L123.59 72.32L125.12 72.57L118.62 110.64C118.62 110.64 117.09 111.96 116.98 109.13Z" fill="#EBEBEB"/>
<path id="Vector_32" d="M345.1 62.11L337.02 116.8H338.2L346.31 62.11H345.1ZM351.56 61.05L360.93 106.26L362.68 105.95L352.48 59.94L351.56 61.05Z" fill="#EBEBEB"/>
<path id="Vector_33" d="M329.78 120.99C329.78 120.99 352.78 101.42 372.18 106.26H378.46C378.46 106.26 374.65 143.37 375.92 152.59C377.19 161.81 348.46 171.48 346.3 170.97C344.14 170.46 336.01 171.48 334.99 159.53C333.97 147.58 329.78 120.99 329.78 120.99Z" fill="url(#paint16_linear_0_3)"/>
<path id="Vector_34" d="M116.98 64.84L113.26 116.84H115.12L118.12 64.84C118.12 64.84 117.32 63.47 116.98 64.84ZM119.85 69.15L130.77 115.86L133.12 115.2L121.23 70.47L119.85 69.15Z" fill="#EBEBEB"/>
<path id="Vector_35" d="M118.16 185.71L115.13 116.8L102.15 116.51L97.57 182.13L118.16 185.71Z" fill="url(#paint17_linear_0_3)"/>
<path id="Vector_36" d="M382.28 120.28L359.3 131.22L341.66 127.53L343.89 176.82L359.3 182.13L383.24 169.19L382.28 120.28Z" fill="#EBEBEB"/>
<path id="Vector_37" d="M346.31 62.11V128.68H348.09L347.2 61.9L346.31 62.11ZM349.39 61.7L367.53 120.99H369.21L350.66 61.48L349.39 61.7Z" fill="#EBEBEB"/>
<path id="Vector_38" d="M382.28 120.28L359.3 131.22V182.13L369.21 176.78L382.28 120.28Z" fill="url(#paint18_linear_0_3)"/>
</g>
<path id="Vector_39" d="M204.56 140.28C205.11 137.01 190.4 131.1 188.48 127.48C188.596 125.124 188.91 122.783 189.42 120.48C189.42 120.48 204.96 127.27 205.81 131.21C206.66 135.15 204.56 140.28 204.56 140.28Z" fill="url(#paint19_linear_0_3)"/>
<path id="Vector_40" d="M273 276.89C269.95 276.52 266.11 276.22 261.48 276.12L249.48 233.7C249.48 233.7 245.56 202.83 246.48 199.54H246.67L261.95 200.67H262.15V200.73L262.42 201.81L279.48 269.49C279.726 270.429 279.738 271.414 279.516 272.358C279.293 273.303 278.842 274.179 278.203 274.909C277.563 275.639 276.755 276.201 275.848 276.547C274.941 276.892 273.963 277.01 273 276.89Z" fill="url(#paint20_linear_0_3)"/>
</g>
<defs>
<linearGradient id="paint0_linear_0_3" x1="246.02" y1="90.76" x2="252.89" y2="90.76" gradientUnits="userSpaceOnUse">
<stop stop-color="#ECC4D7"/>
<stop offset="0.42" stop-color="#EFD4D1"/>
<stop offset="1" stop-color="#F2EAC9"/>
</linearGradient>
<linearGradient id="paint1_linear_0_3" x1="248.08" y1="90.46" x2="262.33" y2="96.55" gradientUnits="userSpaceOnUse">
<stop stop-color="#ECC4D7"/>
<stop offset="0.42" stop-color="#EFD4D1"/>
<stop offset="1" stop-color="#F2EAC9"/>
</linearGradient>
<linearGradient id="paint2_linear_0_3" x1="206.22" y1="139.8" x2="317.72" y2="194.61" gradientUnits="userSpaceOnUse">
<stop stop-opacity="0"/>
<stop offset="0.88" stop-opacity="0.8"/>
<stop offset="0.97"/>
</linearGradient>
<linearGradient id="paint3_linear_0_3" x1="234.64" y1="110.45" x2="247.59" y2="126.49" gradientUnits="userSpaceOnUse">
<stop stop-color="#ECC4D7"/>
<stop offset="0.42" stop-color="#EFD4D1"/>
<stop offset="1" stop-color="#F2EAC9"/>
</linearGradient>
<linearGradient id="paint4_linear_0_3" x1="48.45" y1="160.75" x2="104.77" y2="146.48" gradientUnits="userSpaceOnUse">
<stop stop-opacity="0"/>
<stop offset="0.88" stop-opacity="0.8"/>
<stop offset="0.97"/>
</linearGradient>
<linearGradient id="paint5_linear_0_3" x1="72.69" y1="123.14" x2="120.75" y2="147.17" gradientUnits="userSpaceOnUse">
<stop stop-opacity="0"/>
<stop offset="0.88" stop-opacity="0.8"/>
<stop offset="0.97"/>
</linearGradient>
<linearGradient id="paint6_linear_0_3" x1="104.24" y1="246.98" x2="285.56" y2="235.72" gradientUnits="userSpaceOnUse">
<stop stop-opacity="0"/>
<stop offset="0.88" stop-opacity="0.8"/>
<stop offset="0.97"/>
</linearGradient>
<linearGradient id="paint7_linear_0_3" x1="372.55" y1="147.71" x2="332.57" y2="164.04" gradientUnits="userSpaceOnUse">
<stop stop-opacity="0"/>
<stop offset="0.88" stop-opacity="0.8"/>
<stop offset="0.97"/>
</linearGradient>
<linearGradient id="paint8_linear_0_3" x1="361.97" y1="99.11" x2="361.97" y2="143.04" gradientUnits="userSpaceOnUse">
<stop stop-opacity="0"/>
<stop offset="0.88" stop-opacity="0.8"/>
<stop offset="0.97"/>
</linearGradient>
<linearGradient id="paint9_linear_0_3" x1="358.2" y1="142.39" x2="329.76" y2="162.67" gradientUnits="userSpaceOnUse">
<stop stop-opacity="0"/>
<stop offset="0.88" stop-opacity="0.8"/>
<stop offset="0.97"/>
</linearGradient>
<linearGradient id="paint10_linear_0_3" x1="394.51" y1="120.81" x2="368.61" y2="172.62" gradientUnits="userSpaceOnUse">
<stop stop-opacity="0"/>
<stop offset="0.88" stop-opacity="0.8"/>
<stop offset="0.97"/>
</linearGradient>
<linearGradient id="paint11_linear_0_3" x1="206.22" y1="312.78" x2="228.06" y2="312.78" gradientUnits="userSpaceOnUse">
<stop stop-color="#ECC4D7"/>
<stop offset="0.42" stop-color="#EFD4D1"/>
<stop offset="1" stop-color="#F2EAC9"/>
</linearGradient>
<linearGradient id="paint12_linear_0_3" x1="241.52" y1="310.58" x2="263.72" y2="310.58" gradientUnits="userSpaceOnUse">
<stop stop-color="#ECC4D7"/>
<stop offset="0.42" stop-color="#EFD4D1"/>
<stop offset="1" stop-color="#F2EAC9"/>
</linearGradient>
<linearGradient id="paint13_linear_0_3" x1="267.35" y1="82.65" x2="356.93" y2="82.65" gradientUnits="userSpaceOnUse">
<stop stop-color="#ECC4D7"/>
<stop offset="0.42" stop-color="#EFD4D1"/>
<stop offset="1" stop-color="#F2EAC9"/>
</linearGradient>
<linearGradient id="paint14_linear_0_3" x1="115.96" y1="90.81" x2="195.03" y2="90.81" gradientUnits="userSpaceOnUse">
<stop stop-color="#ECC4D7"/>
<stop offset="0.42" stop-color="#EFD4D1"/>
<stop offset="1" stop-color="#F2EAC9"/>
</linearGradient>
<linearGradient id="paint15_linear_0_3" x1="236.26" y1="64.4" x2="228.37" y2="105.23" gradientUnits="userSpaceOnUse">
<stop stop-color="#ECC4D7"/>
<stop offset="0.42" stop-color="#EFD4D1"/>
<stop offset="1" stop-color="#F2EAC9"/>
</linearGradient>
<linearGradient id="paint16_linear_0_3" x1="337.13" y1="113.65" x2="370.92" y2="151.1" gradientUnits="userSpaceOnUse">
<stop stop-opacity="0"/>
<stop offset="0.88" stop-opacity="0.8"/>
<stop offset="0.97"/>
</linearGradient>
<linearGradient id="paint17_linear_0_3" x1="75.02" y1="133.56" x2="148.23" y2="170.73" gradientUnits="userSpaceOnUse">
<stop stop-opacity="0"/>
<stop offset="0.88" stop-opacity="0.8"/>
<stop offset="0.97"/>
</linearGradient>
<linearGradient id="paint18_linear_0_3" x1="344.61" y1="123.84" x2="431.89" y2="215.07" gradientUnits="userSpaceOnUse">
<stop stop-color="white" stop-opacity="0"/>
<stop offset="0.84" stop-color="white" stop-opacity="0.84"/>
<stop offset="0.97" stop-color="white"/>
</linearGradient>
<linearGradient id="paint19_linear_0_3" x1="215.93" y1="119.33" x2="176.7" y2="142.23" gradientUnits="userSpaceOnUse">
<stop stop-opacity="0"/>
<stop offset="0.88" stop-opacity="0.8"/>
<stop offset="0.97"/>
</linearGradient>
<linearGradient id="paint20_linear_0_3" x1="218.65" y1="240.82" x2="280.3" y2="236.99" gradientUnits="userSpaceOnUse">
<stop stop-opacity="0"/>
<stop offset="0.88" stop-opacity="0.8"/>
<stop offset="0.97"/>
</linearGradient>
<clipPath id="clip0_0_3">
<rect width="508.61" height="377.6" fill="white"/>
</clipPath>
</defs>
</svg>
